# xmcd
#
# Track frame offsets:
#	150
#	15522
#	37394
#	54214
#	75194
#	94325
#	113963
#	132086
#	149475
#	168846
#	188630
#	203432
#	216856
#	235412
#	252821
#	275229
#	289827
#	303235
#
# Disc length: 4282 seconds
#
# Revision: 0
# Processed by: cddbd v1.4PL0 Copyright (c) Steve Scherf et al.
# Submitted via: EasyCDDAExtractor 4.6.0.1
#
DISCID=fc10b812
DTITLE=Magnifico - Magnifico komplet
DYEAR=1900
DGENRE=
TTITLE0=Magnifico - 24000 poljubov
TTITLE1=Magnifico - Emanuelle
TTITLE2=Magnifico - Revolution is my solution
TTITLE3=Magnifico - Pastirce mlado
TTITLE4=Magnifico - Zeleni Jurij
TTITLE5=Magnifico, Iztok Turk - Kdo je cefur
TTITLE6=Magnifico - Ubicu te ja
TTITLE7=Magnifico - Mesaj
TTITLE8=Magnifico, Alka Vuica - Duet
TTITLE9=Magnifico - In ko enkrat bom umrl
TTITLE10=Magnifico - 17
TTITLE11=Magnifico - Silvia
TTITLE12=Magnifico - Sexy boy
TTITLE13=Magnifico, Schatzi - Halo, gospodicna
TTITLE14=Magnifico - Ljubljana-Portoroz
TTITLE15=Magnifico - Modern
TTITLE16=Magnifico - Gospod tezko sem ponizen
TTITLE17=Magnifico, Gregor Strnisa - Silvia nabira jesensko listje
EXTD=
EXTT0=
EXTT1=
EXTT2=
EXTT3=
EXTT4=
EXTT5=
EXTT6=
EXTT7=
EXTT8=
EXTT9=
EXTT10=
EXTT11=
EXTT12=
EXTT13=
EXTT14=
EXTT15=
EXTT16=
EXTT17=
PLAYORDER=
